<svg width="24.000000" height="24.000000" viewBox="0 0 24 24" fill="none" xmlns="http://www.w3.org/2000/svg" xmlns:xlink="http://www.w3.org/1999/xlink">
	<desc>
			Created with Pixso.
	</desc>
	<defs/>
	<path id="Vector" d="M12 0C11.8557 3.05176e-05 11.7129 0.0331726 11.5798 0.0975342C11.4467 0.161926 11.3259 0.256226 11.2244 0.375L0.221588 11.4918C0.152863 11.5505 0.0970154 11.6271 0.0585327 11.7153C0.02005 11.8036 0 11.9011 0 12C0 12.1675 0.0574646 12.3282 0.15976 12.4466C0.262054 12.565 0.400787 12.6316 0.545441 12.6316L3.27274 12.6316L3.27274 22.7368C3.27274 23.4341 3.76144 24 4.36365 24L8.72726 24C9.32947 24 9.81818 23.4341 9.81818 22.7368L9.81818 15.1579L14.1818 15.1579L14.1818 22.7368C14.1818 23.4341 14.6705 24 15.2727 24L19.6364 24C20.2386 24 20.7273 23.4341 20.7273 22.7368L20.7273 12.6316L23.4546 12.6316C23.5992 12.6316 23.7379 12.565 23.8402 12.4466C23.9425 12.3282 24 12.1675 24 12C24 11.9011 23.9799 11.8036 23.9415 11.7153C23.903 11.6271 23.8471 11.5505 23.7784 11.4918L12.782 0.382416C12.7798 0.379913 12.7777 0.377472 12.7756 0.375C12.6741 0.256226 12.5533 0.161926 12.4202 0.0975342C12.2871 0.0331726 12.1443 3.05176e-05 12 0Z" fill="#FFFFFF" fill-opacity="1.000000" fill-rule="nonzero"/>
</svg>
